<svg xmlns="http://www.w3.org/2000/svg" viewBox="0 0 354 366">
  <defs>
    <style>
      .cls-1 {
        fill: #c4ab83;
      }
    </style>
  </defs>
  <title>Building</title>
  <g id="Layer_1" data-name="Layer 1">
    <g>
      <polygon class="cls-1" points="149.09 261.39 151.55 261.39 151.55 237.19 96.73 237.19 96.73 261.39 99.19 261.39 99.19 239.66 149.09 239.66 149.09 261.39"/>
      <path class="cls-1" d="M184.65,221.53v-62.2H166.48v62.2Zm-16.94-61h15.71v59.74H167.71Z"/>
      <polygon class="cls-1" points="165.52 158.37 185.62 158.37 185.62 180.99 187.67 180.99 187.67 156.31 163.47 156.31 163.47 180.99 165.52 180.99 165.52 158.37"/>
      <rect class="cls-1" x="164.22" y="222.28" width="22.69" height="1.78"/>
      <path class="cls-1" d="M196.47,159.32v62.2h18.17v-62.2Zm16.94,61H197.7V160.56h15.71Z"/>
      <polygon class="cls-1" points="193.46 180.99 195.51 180.99 195.51 158.37 215.61 158.37 215.61 180.99 217.66 180.99 217.66 156.31 193.46 156.31 193.46 180.99"/>
      <rect class="cls-1" x="194.21" y="222.28" width="22.69" height="1.78"/>
      <polygon class="cls-1" points="133.48 180.99 135.53 180.99 135.53 158.37 155.63 158.37 155.63 180.99 157.68 180.99 157.68 156.31 133.48 156.31 133.48 180.99"/>
      <polygon class="cls-1" points="103.49 180.24 105.54 180.24 105.54 158.37 125.64 158.37 125.64 180.24 127.69 180.24 127.69 155.56 103.49 155.56 103.49 180.24"/>
      <path class="cls-1" d="M168.23,302.65H186.4v-62.2H168.23Zm1.23-61h15.71v59.74H169.46Z"/>
      <polygon class="cls-1" points="165.21 262.12 167.26 262.12 167.26 239.49 187.36 239.49 187.36 262.12 189.41 262.12 189.41 237.44 165.21 237.44 165.21 262.12"/>
      <path class="cls-1" d="M198.47,302.65h18.17v-62.2H198.47Zm1.23-61h15.71v59.74H199.7Z"/>
      <polygon class="cls-1" points="195.46 262.12 197.51 262.12 197.51 239.49 217.61 239.49 217.61 262.12 219.66 262.12 219.66 237.44 195.46 237.44 195.46 262.12"/>
      <path class="cls-1" d="M228.72,302.65h18.17v-62.2H228.72Zm1.23-61h15.71v59.74H229.95Z"/>
      <polygon class="cls-1" points="227.76 239.49 247.85 239.49 247.85 262.12 249.9 262.12 249.9 237.44 225.71 237.44 225.71 262.12 227.76 262.12 227.76 239.49"/>
      <path class="cls-1" d="M228.72,159.32v62.2h18.17v-62.2Zm16.94,61H229.95V160.56h15.71Z"/>
      <polygon class="cls-1" points="227.76 158.37 247.85 158.37 247.85 180.99 249.9 180.99 249.9 156.31 225.71 156.31 225.71 180.99 227.76 180.99 227.76 158.37"/>
      <rect class="cls-1" x="226.46" y="222.28" width="22.69" height="1.78"/>
      <path class="cls-1" d="M277.35,104.74h-5v199.6a.25.25,0,0,1-.5,0V104.74h-2V304.29h-1.57V110a.41.41,0,0,0-.2-.35L202.88,69.48V58.2a.41.41,0,0,0-.41-.41H149.23a.41.41,0,0,0-.41.41V69.48l-63.5,39a.41.41,0,0,0-.2.35v107a9.29,9.29,0,0,0-.47,2.55,3.58,3.58,0,0,0,.47,1.78v6.3h-.86v6.7h.86v71.09H83V104.74H81.21v199.6a.25.25,0,0,1-.5,0V104.74H75.38V304.29H73.65v15h1.57L73.32,321a.2.2,0,0,0-.06.15H73.2v3.28H177.64v-3.28h-.07a.2.2,0,0,0-.06-.15l-1.9-1.69H278.85v-15h-1.5Zm-8.11,200.38v2.64h-8.58v-2.64Zm0,8.09h-8.58V311h8.58Zm5.92.5v2.22h-8.58V313.7Zm-108.56-.5V311h8.58v2.22Zm5.92,3.22h2.67v2h-.49l-2.27-2Zm-90-5.44h5.82l-1.66,2.22H82.55Zm-5.09-.5v-2.22H88v2.22Zm8.88,3.22-.86,1.15H80.25a.2.2,0,0,0-.14.05l-1.14,1H77.46V313.7Zm3.17-3.56h3.31l-.14.18a.2.2,0,0,0,0,.13h0v3.28h65.66v-3.28h0a.2.2,0,0,0,0-.13l-.14-.18h3.31L164,313.7h0l1.29,1.73H85.56Zm56.37-59h-44v-8.78h44Zm.5,2.45v50.72H136V253.58ZM113,304.08a.24.24,0,0,1,.21-.16H133.9a.25.25,0,0,1,.25.25.31.31,0,0,1-.25.25H113.24a.24.24,0,0,1-.2-.13v0s0-.06,0-.09S113,304.11,113,304.08Zm-.17-22.46a.91.91,0,0,1,0-.89,1,1,0,0,1,.17-.25,1,1,0,1,1-.17,1.15Zm2.92,21.31V255.22h16.38v47.71Zm18.13-49.34H113.24a.24.24,0,0,1-.21-.16s0-.06,0-.09,0-.06,0-.09a.24.24,0,0,1,.21-.16H133.9a.25.25,0,0,1,0,.5Zm-22.11,0v50.72H101.41V253.58ZM154.18,306l3.4,4.28H93.26l3.4-4.28Zm-6.57-.41v-.43h8.48v2.59l-1.65-2.08a.2.2,0,0,0-.16-.08Zm24.4,2.71v2.22h-9.51v-2.22Zm-5.42-.5v-2.64h8.58v2.64Zm-.5,3.22v2.22h-2L162.47,311Zm0-3.22h-9.51v-2.64h9.51Zm-4.09.5v2.11l-.41-.55a.21.21,0,0,0-.16-.08h-3.74l-1.17-1.47Zm-61.83-2.71H96.56a.2.2,0,0,0-.16.08l-1.69,2.13H92.55v-2.64h7.62Zm-5.86,2.71-1.17,1.47H89.41a.2.2,0,0,0-.16.08l-.51.68h-.27v-2.22Zm70.19,5.44H172v2.22h-.11v0l-1.18-1.05a.2.2,0,0,0-.14-.05h-5.23Zm8-3.22v-2.22h8.58v2.22Zm87.64-2.72H249.72v-2.64h10.43Zm5.92.5v2.22H255.64v-2.22Zm-10.93,0v2.22h-8.58v-2.22Zm-5.92-.5h-8.58v-2.64h8.58Zm-3.17.5v2.22h-9.43v-2.22Zm-5.92-.5h-9.43v-2.64h9.43Zm-4,.5v2.22h-8.58v-2.22Zm-5.92-.5h-8.58v-2.64h8.58Zm-3.17.5v2.22h-8.43v-2.22Zm-5.92-.5H212.7v-2.64h8.43Zm-3,.5v2.22h-8.58v-2.22Zm-5.92-.5h-8.58v-2.64h8.58Zm-3.17.5v2.22h-8.43v-2.22Zm-5.92-.5h-8.43v-2.64h8.43Zm-3,.5v2.22h-8.58v-2.22Zm-5.92-.5h-8.58v-2.64h8.58Zm-3.17.5v2.22H181.6v-2.22Zm-5.92-.5h-9.43v-2.64h9.43ZM175.68,311h9.43v2.22h-9.43Zm5.92,2.72H191v2.22H181.6Zm4-.5V311h8.58v2.22Zm5.92.5h8.58v2.22h-8.58Zm3.17-.5V311h8.43v2.22Zm5.92.5H209v2.22h-8.43Zm3-.5V311h8.58v2.22Zm5.92.5h8.58v2.22h-8.58Zm3.17-.5V311h8.43v2.22Zm5.92.5H227v2.22h-8.43Zm3-.5V311h8.58v2.22Zm5.92.5h8.58v2.22h-8.58Zm3.17-.5V311h9.43v2.22Zm5.92.5h9.43v2.22h-9.43Zm4-.5V311h8.58v2.22Zm5.92.5h8.58v2.22h-8.58Zm3.17-.5V311h10.43v2.22Zm5.92.5h10.43v2.22H255.64Zm10.93-3.22v-2.22h8.58v2.22ZM85.94,214.71c.33-.91.71-1.85,1.09-2.78.56-1.37,1.09-2.69,1.46-3.88v2.22l-.61,1.51a28.16,28.16,0,0,0-1.94,5.87Zm2.6-10.95v.62a4.7,4.7,0,0,0-.76-.75c-.53-.45-1-.83-1-1.58a1,1,0,0,1,.34-.82A1.39,1.39,0,0,1,88,201a1.41,1.41,0,0,0-.39,1A2.13,2.13,0,0,0,88.54,203.76ZM160.4,225v1.11a1.25,1.25,0,0,1-.48-.32,2,2,0,0,1-.38-1.36,2.22,2.22,0,0,1,.86-1.46V224a1.51,1.51,0,0,0,0,.35A3.89,3.89,0,0,0,160.4,225Zm-1.27-.58a2.38,2.38,0,0,0,.49,1.63,1.68,1.68,0,0,0,.34.29h-2v-3.7h2.2A2.63,2.63,0,0,0,159.13,224.38Zm-4.64-.33v2.25H152v-2.25Zm-2.95,0v2.25H148.9v-2.25Zm-3.05,0v2.25H146v-2.25Zm-2.95,0v2.25H142.9v-2.25Zm-3.05,0v2.25H140v-2.25Zm-2.95,0v2.25h-2.64v-2.25Zm-3.05,0v2.25H134v-3.7h.27v1.45Zm-12,0v2.25H122v-2.25Zm-2.95,0v2.25h-2.64v-2.25Zm-3.05,0v2.25H116v-2.25Zm-2.95,0v2.25h-2.64v-2.25Zm-3.05,0v2.25H110v-2.25Zm-2.95,0v2.25h-2.64v-2.25Zm-3.05,0v2.25H104v-3.7h.27v1.45Zm-17.56.41s0-.06,0-.09,0,0,0,0V223a2.17,2.17,0,0,1,.83,1.42,2,2,0,0,1-.38,1.36,1.25,1.25,0,0,1-.44.31ZM89.7,226a2.38,2.38,0,0,0,.49-1.63,2.63,2.63,0,0,0-1-1.78h2.45v3.7H89.35A1.68,1.68,0,0,0,89.7,226ZM92,222.6h2.54v3.7H92Zm-2.57-13a.36.36,0,0,0-.25-.08l0,0a1.2,1.2,0,0,1,.54-.29,3.18,3.18,0,0,1,.69-.06h.06a1.65,1.65,0,0,0,.75-.13,1.13,1.13,0,0,0,.35-.3v1.46H89.5a.43.43,0,0,0,.1-.28A.38.38,0,0,0,89.46,209.62Zm-.51-4.07v-1.43a1.89,1.89,0,0,1,.83,1.49,5.82,5.82,0,0,1-.14,1.14h-.69v-1.07s0-.05,0-.08S88.95,205.57,88.95,205.55ZM90,208.4a.61.61,0,0,0,.43.15.49.49,0,0,0,.45-.31.48.48,0,0,0-.08-.49.38.38,0,0,0-.41-.09.16.16,0,0,0-.09.1.17.17,0,0,0,0,.14.15.15,0,0,0,.18.06s.05,0,.06,0a.16.16,0,0,1,0,.15.15.15,0,0,1-.15.09.24.24,0,0,1-.19-.07.38.38,0,0,1-.13-.25.49.49,0,0,1,.28-.48.61.61,0,0,1,.66.06.79.79,0,0,1,.31.49.67.67,0,0,1-.29.63.76.76,0,0,1-.18.09,1.4,1.4,0,0,1-.52.07h-.06l-.41,0h0a1.63,1.63,0,0,0-.49.14c.15-.41.28-.82.39-1.2a.87.87,0,0,0,0,.17A.73.73,0,0,0,90,208.4Zm-.17-.87.09-.36h.17A.93.93,0,0,0,89.87,207.53Zm-.33-.36a19.69,19.69,0,0,1-.59,1.89v-1.89Zm2,0h.12v.12Zm13.64.5a.38.38,0,0,0-.41.09.48.48,0,0,0-.08.49.49.49,0,0,0,.45.31.61.61,0,0,0,.43-.15.73.73,0,0,0,.24-.5.9.9,0,0,0-.34-.74h1.08v2l-.12-.09a1.69,1.69,0,0,0-.73-.26h0l-.41,0h-.06a1.41,1.41,0,0,1-.52-.07l-.18-.09a.68.68,0,0,1-.29-.63.79.79,0,0,1,.31-.49.62.62,0,0,1,.66-.06.49.49,0,0,1,.28.48.39.39,0,0,1-.13.25.25.25,0,0,1-.19.07.15.15,0,0,1-.15-.09.16.16,0,0,1,0-.15s0,0,.06,0a.18.18,0,0,0,.19-.08.15.15,0,0,0-.08-.23Zm2.86.74a.61.61,0,0,0,.43.15.49.49,0,0,0,.45-.31.48.48,0,0,0-.08-.49.38.38,0,0,0-.41-.09.16.16,0,0,0-.09.1.17.17,0,0,0,0,.14.15.15,0,0,0,.18.06s.05,0,.06,0a.16.16,0,0,1,0,.15.15.15,0,0,1-.15.09.24.24,0,0,1-.19-.07.39.39,0,0,1-.13-.25.49.49,0,0,1,.28-.48.61.61,0,0,1,.66.06.79.79,0,0,1,.31.49.68.68,0,0,1-.29.63.76.76,0,0,1-.18.09,1.4,1.4,0,0,1-.52.07h-.06l-.41,0h0l-.12,0v-1.66h.34a.9.9,0,0,0-.34.74A.73.73,0,0,0,108,208.4Zm.41.74h.06a1.65,1.65,0,0,0,.75-.13,1.13,1.13,0,0,0,.35-.3v1.46h-1.82v-1A3.33,3.33,0,0,1,108.4,209.15Zm1-2h.12v.12Zm.12,3.42v9.71h-1.82v-9.71Zm25.56-2.92a.38.38,0,0,0-.41.09.48.48,0,0,0-.08.49.49.49,0,0,0,.45.31.61.61,0,0,0,.43-.15.73.73,0,0,0,.24-.5.9.9,0,0,0-.34-.74h1.08v2l-.12-.09a1.69,1.69,0,0,0-.73-.26h0l-.41,0h-.06a1.41,1.41,0,0,1-.52-.07l-.18-.09a.68.68,0,0,1-.29-.63.79.79,0,0,1,.31-.49.62.62,0,0,1,.66-.06.49.49,0,0,1,.28.48.39.39,0,0,1-.13.25.25.25,0,0,1-.19.07.15.15,0,0,1-.15-.09.16.16,0,0,1,0-.15s0,0,.06,0a.18.18,0,0,0,.19-.08.15.15,0,0,0-.08-.23Zm2.86.74a.61.61,0,0,0,.43.15.49.49,0,0,0,.45-.31.48.48,0,0,0-.08-.49.38.38,0,0,0-.41-.09.16.16,0,0,0-.09.1.17.17,0,0,0,0,.14.15.15,0,0,0,.18.06s.05,0,.06,0a.16.16,0,0,1,0,.15.15.15,0,0,1-.15.09.24.24,0,0,1-.19-.07.39.39,0,0,1-.13-.25.49.49,0,0,1,.28-.48.61.61,0,0,1,.66.06.79.79,0,0,1,.31.49.68.68,0,0,1-.29.63.76.76,0,0,1-.18.09,1.4,1.4,0,0,1-.52.07h-.06l-.41,0h0l-.12,0v-1.66h.34a.9.9,0,0,0-.34.74A.73.73,0,0,0,138,208.4Zm.41.74h.06a1.65,1.65,0,0,0,.75-.13,1.13,1.13,0,0,0,.35-.3v1.46h-1.82v-1A3.33,3.33,0,0,1,138.39,209.15Zm1-2h.12v.12Zm.12,3.42v9.71h-1.82v-9.71Zm19.56-2.92a.38.38,0,0,0-.41.09.48.48,0,0,0-.08.49.49.49,0,0,0,.45.31.61.61,0,0,0,.43-.15.73.73,0,0,0,.15-.19q.1.31.21.64l-.23-.05h0l-.41,0h-.06a1.41,1.41,0,0,1-.52-.07.77.77,0,0,1-.18-.09.67.67,0,0,1-.29-.63.79.79,0,0,1,.31-.49.62.62,0,0,1,.66-.06.49.49,0,0,1,.28.48.39.39,0,0,1-.13.25.25.25,0,0,1-.19.07.15.15,0,0,1-.15-.09.16.16,0,0,1,0-.15s0,0,.06,0a.18.18,0,0,0,.19-.08.15.15,0,0,0-.08-.23Zm-3.73,2a.36.36,0,0,0-.28-.08,1.17,1.17,0,0,1,.59-.33,3.17,3.17,0,0,1,.69-.06h.06a1.65,1.65,0,0,0,.75-.13,1.13,1.13,0,0,0,.35-.3v1.46h-2.11a.43.43,0,0,0,.1-.28A.38.38,0,0,0,155.38,209.62Zm.59-1.22a.61.61,0,0,0,.43.15.49.49,0,0,0,.45-.31.48.48,0,0,0-.08-.49.38.38,0,0,0-.41-.09.16.16,0,0,0-.09.1.17.17,0,0,0,0,.14.16.16,0,0,0,.18.06s.05,0,.06,0a.16.16,0,0,1,0,.15.15.15,0,0,1-.15.09.24.24,0,0,1-.19-.07.39.39,0,0,1-.13-.25.49.49,0,0,1,.28-.48.61.61,0,0,1,.66.06.79.79,0,0,1,.31.49.68.68,0,0,1-.29.63.75.75,0,0,1-.18.09,1.4,1.4,0,0,1-.52.07h-.06l-.41,0h0a1.69,1.69,0,0,0-.73.26,1.16,1.16,0,0,0-.2.17v-2.06h1.16a.9.9,0,0,0-.34.74A.73.73,0,0,0,156,208.4Zm1.45-1.24h.12v.12Zm.53,14.22V210.58h2.45v10.81Zm2.42-12.32a19.74,19.74,0,0,1-.6-1.91h.63v1.93Zm0-3.87a2.09,2.09,0,0,0,0,.41,5.09,5.09,0,0,0,0,.64v.51h-.72a5.82,5.82,0,0,1-.14-1.14,1.93,1.93,0,0,1,.86-1.52ZM158.27,209a1.65,1.65,0,0,0,.75.13h.09a3,3,0,0,1,.67.06,1.37,1.37,0,0,1,.24.09l.11.3,0,0a.37.37,0,0,0-.14.28.43.43,0,0,0,.1.28H158v-1.43A1.13,1.13,0,0,0,158.27,209Zm-.32-1.76v-.09h.1Zm-.41-5.44v4.94H154.9v-4.94ZM144,208.4a.61.61,0,0,0,.43.15.49.49,0,0,0,.45-.31.48.48,0,0,0-.08-.49.38.38,0,0,0-.41-.09.16.16,0,0,0-.09.1.17.17,0,0,0,0,.14.15.15,0,0,0,.18.06s.05,0,.06,0a.16.16,0,0,1,0,.15.15.15,0,0,1-.15.09.24.24,0,0,1-.19-.07.39.39,0,0,1-.13-.25.49.49,0,0,1,.28-.48.61.61,0,0,1,.66.06.79.79,0,0,1,.31.49.67.67,0,0,1-.29.63.76.76,0,0,1-.18.09,1.4,1.4,0,0,1-.52.07h-.06l-.41,0h0a1.69,1.69,0,0,0-.73.26,1.15,1.15,0,0,0-.2.17v-2.06h1.16a.9.9,0,0,0-.34.74A.73.73,0,0,0,144,208.4Zm-1.07,2.18h2.64v9.71H142.9Zm.53-.41a.43.43,0,0,0,.1-.28.37.37,0,0,0-.14-.28.36.36,0,0,0-.28-.08,1.17,1.17,0,0,1,.59-.33,3.17,3.17,0,0,1,.69-.06h.06a1.65,1.65,0,0,0,.75-.13,1.13,1.13,0,0,0,.35-.3v1.46Zm2-3h.12v.12Zm-2.52-.41v-4.94h2.64v4.94Zm5.14,3.42H146v-1.43a1.12,1.12,0,0,0,.32.27,1.65,1.65,0,0,0,.75.13h.09a3,3,0,0,1,.67.06,1.17,1.17,0,0,1,.59.33.35.35,0,0,0-.28.08.37.37,0,0,0-.14.28A.43.43,0,0,0,148,210.17ZM146,207.26v-.09h.1Zm0,3.33h2.54v9.71H146Zm2.41-1.52a1.69,1.69,0,0,0-.73-.26h0l-.41,0h-.06a1.41,1.41,0,0,1-.52-.07.77.77,0,0,1-.18-.09.67.67,0,0,1-.29-.63.79.79,0,0,1,.31-.49.62.62,0,0,1,.66-.06.49.49,0,0,1,.28.48.39.39,0,0,1-.13.25.25.25,0,0,1-.19.07.15.15,0,0,1-.15-.09.16.16,0,0,1,0-.15s0,0,.06,0a.18.18,0,0,0,.19-.08.15.15,0,0,0-.08-.23.38.38,0,0,0-.41.09.48.48,0,0,0-.08.49.49.49,0,0,0,.45.31.61.61,0,0,0,.43-.15.73.73,0,0,0,.24-.5.9.9,0,0,0-.34-.74h1.08v2ZM146,206.76v-4.94h2.54v4.94Zm4,1.65a.61.61,0,0,0,.43.15.49.49,0,0,0,.45-.31.48.48,0,0,0-.08-.49.38.38,0,0,0-.41-.09.16.16,0,0,0-.09.1.17.17,0,0,0,0,.14.15.15,0,0,0,.18.06s.05,0,.06,0a.16.16,0,0,1,0,.15.15.15,0,0,1-.15.09.24.24,0,0,1-.19-.07.38.38,0,0,1-.13-.25.49.49,0,0,1,.28-.48.61.61,0,0,1,.66.06.79.79,0,0,1,.31.49.67.67,0,0,1-.29.63.76.76,0,0,1-.18.09,1.4,1.4,0,0,1-.52.07h-.06l-.41,0h0a1.69,1.69,0,0,0-.73.26,1.15,1.15,0,0,0-.2.17v-2.06h1.16a.9.9,0,0,0-.34.74A.73.73,0,0,0,150,208.4Zm-1.07,2.18h2.64v9.71H148.9Zm.53-.41a.43.43,0,0,0,.1-.28.38.38,0,0,0-.14-.28.36.36,0,0,0-.28-.08,1.17,1.17,0,0,1,.59-.33,3.18,3.18,0,0,1,.69-.06h.06a1.65,1.65,0,0,0,.75-.13,1.13,1.13,0,0,0,.35-.3v1.46Zm2-3h.12v.12Zm-2.52-.41v-4.94h2.64v4.94Zm3.05.41h.1l-.1.09Zm0,3.42h1.48v9.71H152Zm0-.41v-1.43a1.13,1.13,0,0,0,.32.27,1.65,1.65,0,0,0,.75.13h.41v1Zm1.22-1.42h-.06a1.41,1.41,0,0,1-.52-.07l-.18-.09a.67.67,0,0,1-.29-.63.79.79,0,0,1,.31-.49.62.62,0,0,1,.66-.06.49.49,0,0,1,.28.48.39.39,0,0,1-.13.25.25.25,0,0,1-.19.07.15.15,0,0,1-.15-.09.16.16,0,0,1,0-.15s0,0,.06,0a.18.18,0,0,0,.19-.08.15.15,0,0,0-.08-.23.38.38,0,0,0-.41.09.48.48,0,0,0-.08.49.49.49,0,0,0,.45.31.61.61,0,0,0,.37-.12v.34Zm.23-1.59h0v0Zm-1.45-.41v-4.94h1.48v4.94Zm-9.46-4.94v4.94H140v-4.94Zm-.45,8.35H140v-1.43a1.13,1.13,0,0,0,.32.27,1.65,1.65,0,0,0,.75.13h.09a3,3,0,0,1,.67.06,1.17,1.17,0,0,1,.59.33.35.35,0,0,0-.28.08.37.37,0,0,0-.14.28A.43.43,0,0,0,142,210.17ZM140,207.26v-.09h.1Zm2.41,1.81a1.69,1.69,0,0,0-.73-.26h0l-.41,0h-.06a1.41,1.41,0,0,1-.52-.07l-.18-.09a.67.67,0,0,1-.29-.63.79.79,0,0,1,.31-.49.62.62,0,0,1,.66-.06.49.49,0,0,1,.28.48.39.39,0,0,1-.13.25.25.25,0,0,1-.19.07.15.15,0,0,1-.15-.09.16.16,0,0,1,0-.15s0,0,.06,0a.18.18,0,0,0,.19-.08.15.15,0,0,0-.08-.23.38.38,0,0,0-.41.09.48.48,0,0,0-.08.49.49.49,0,0,0,.45.31.61.61,0,0,0,.43-.15.73.73,0,0,0,.24-.5.9.9,0,0,0-.34-.74h1.08v2ZM140,210.58h2.54v9.71H140Zm14.94,0h2.64v10.81H154.9Zm-29.51-1a.36.36,0,0,0-.28-.08,1.17,1.17,0,0,1,.59-.33,3.17,3.17,0,0,1,.69-.06h.06a1.65,1.65,0,0,0,.75-.13,1.13,1.13,0,0,0,.35-.3v1.46h-2.11a.43.43,0,0,0,.1-.28A.38.38,0,0,0,125.39,209.62Zm.59-1.22a.61.61,0,0,0,.43.15.49.49,0,0,0,.45-.31.48.48,0,0,0-.08-.49.38.38,0,0,0-.41-.09.16.16,0,0,0-.09.1.17.17,0,0,0,0,.14.16.16,0,0,0,.18.06s.05,0,.06,0a.16.16,0,0,1,0,.15.15.15,0,0,1-.15.09.25.25,0,0,1-.19-.07.39.39,0,0,1-.13-.25.49.49,0,0,1,.28-.48.61.61,0,0,1,.66.06.79.79,0,0,1,.31.49.68.68,0,0,1-.29.63.75.75,0,0,1-.18.09,1.4,1.4,0,0,1-.52.07h-.06l-.41,0h0a1.69,1.69,0,0,0-.73.26,1.16,1.16,0,0,0-.2.17v-2.06h1.16a.9.9,0,0,0-.34.74A.73.73,0,0,0,126,208.4Zm1.45-1.24h.12v.12Zm.53,14.22V210.58h2.54v10.81Zm.32-12.37a1.65,1.65,0,0,0,.75.13h.09a3,3,0,0,1,.67.06,1.17,1.17,0,0,1,.59.33.35.35,0,0,0-.28.08.37.37,0,0,0-.14.28.43.43,0,0,0,.1.28H128v-1.43A1.13,1.13,0,0,0,128.28,209Zm-.32-1.76v-.09h.1Zm1.16.4a.38.38,0,0,0-.41.09.48.48,0,0,0-.08.49.49.49,0,0,0,.45.31.61.61,0,0,0,.43-.15.73.73,0,0,0,.24-.5.9.9,0,0,0-.34-.74h1.08v2l-.13-.1a1.69,1.69,0,0,0-.73-.26h0l-.41,0h-.06a1.41,1.41,0,0,1-.52-.07.77.77,0,0,1-.18-.09.67.67,0,0,1-.29-.63.79.79,0,0,1,.31-.49.62.62,0,0,1,.66-.06.49.49,0,0,1,.28.48.39.39,0,0,1-.13.25.25.25,0,0,1-.19.07.15.15,0,0,1-.15-.09.16.16,0,0,1,0-.15s0,0,.06,0a.18.18,0,0,0,.19-.08.15.15,0,0,0-.08-.23Zm1.79,13.73V210.58h2.64v10.81Zm1.07-13a.61.61,0,0,0,.43.15.49.49,0,0,0,.45-.31.48.48,0,0,0-.08-.49.38.38,0,0,0-.41-.09.16.16,0,0,0-.09.1.17.17,0,0,0,0,.14.15.15,0,0,0,.18.06s.05,0,.06,0a.16.16,0,0,1,0,.15.15.15,0,0,1-.15.09.24.24,0,0,1-.19-.07.39.39,0,0,1-.13-.25.49.49,0,0,1,.28-.48.61.61,0,0,1,.66.06.79.79,0,0,1,.31.49.68.68,0,0,1-.29.63.75.75,0,0,1-.18.09,1.4,1.4,0,0,1-.52.07h-.06l-.41,0h0a1.69,1.69,0,0,0-.73.26,1.15,1.15,0,0,0-.2.17v-2.06h1.16a.9.9,0,0,0-.34.74A.73.73,0,0,0,132,208.4Zm1.57.31v1.46h-2.11a.43.43,0,0,0,.1-.28.37.37,0,0,0-.14-.28.36.36,0,0,0-.28-.08,1.17,1.17,0,0,1,.59-.33,3.17,3.17,0,0,1,.69-.06h.06a1.65,1.65,0,0,0,.75-.13A1.13,1.13,0,0,0,133.55,208.71Zm-.12-1.55h.12v.12Zm.53,14.22V210.58h2.53v10.81Zm.32-12.37a1.65,1.65,0,0,0,.75.13h.09a3,3,0,0,1,.67.06,1.17,1.17,0,0,1,.59.33.35.35,0,0,0-.28.08.37.37,0,0,0-.14.28.43.43,0,0,0,.1.28H134v-1.43A1.12,1.12,0,0,0,134.28,209Zm-.32-1.76v-.09h.1Zm-.41-5.44v4.94h-2.64v-4.94Zm-3.05,0v4.94H128v-4.94Zm-2.95,0v4.94h-2.64v-4.94ZM114,208.4a.61.61,0,0,0,.43.15.49.49,0,0,0,.45-.31.48.48,0,0,0-.08-.49.38.38,0,0,0-.41-.09.16.16,0,0,0-.09.1.17.17,0,0,0,0,.14.15.15,0,0,0,.18.06s.05,0,.06,0a.16.16,0,0,1,0,.15.15.15,0,0,1-.15.09.24.24,0,0,1-.19-.07.39.39,0,0,1-.13-.25.49.49,0,0,1,.28-.48.61.61,0,0,1,.66.06.79.79,0,0,1,.31.49.67.67,0,0,1-.29.63.76.76,0,0,1-.18.09,1.4,1.4,0,0,1-.52.07h-.06l-.41,0h0a1.69,1.69,0,0,0-.73.26,1.15,1.15,0,0,0-.2.17v-2.06h1.16a.9.9,0,0,0-.34.74A.73.73,0,0,0,114,208.4Zm-1.07,2.18h2.64v9.71h-2.64Zm.53-.41a.43.43,0,0,0,.1-.28.37.37,0,0,0-.14-.28.36.36,0,0,0-.28-.08,1.17,1.17,0,0,1,.59-.33,3.17,3.17,0,0,1,.69-.06h.06a1.65,1.65,0,0,0,.75-.13,1.13,1.13,0,0,0,.35-.3v1.46Zm2-3h.12v.12Zm-2.52-.41v-4.94h2.64v4.94Zm5.14,3.42H116v-1.43a1.12,1.12,0,0,0,.32.27,1.65,1.65,0,0,0,.75.13h.09a3,3,0,0,1,.67.06,1.17,1.17,0,0,1,.59.33.35.35,0,0,0-.28.08.37.37,0,0,0-.14.28A.43.43,0,0,0,118.05,210.17ZM116,207.26v-.09h.1Zm0,3.33h2.54v9.71H116Zm2.41-1.52a1.69,1.69,0,0,0-.73-.26h0l-.41,0h-.06a1.41,1.41,0,0,1-.52-.07.77.77,0,0,1-.18-.09.67.67,0,0,1-.29-.63.79.79,0,0,1,.31-.49.62.62,0,0,1,.66-.06.49.49,0,0,1,.28.48.39.39,0,0,1-.13.25.25.25,0,0,1-.19.07.15.15,0,0,1-.15-.09.16.16,0,0,1,0-.15s0,0,.06,0a.18.18,0,0,0,.19-.08.15.15,0,0,0-.08-.23.38.38,0,0,0-.41.09.48.48,0,0,0-.08.49.49.49,0,0,0,.45.31.61.61,0,0,0,.43-.15.73.73,0,0,0,.24-.5.9.9,0,0,0-.34-.74h1.08v2ZM116,206.76v-4.94h2.54v4.94Zm4,1.65a.61.61,0,0,0,.43.15.49.49,0,0,0,.45-.31.48.48,0,0,0-.08-.49.38.38,0,0,0-.41-.09.16.16,0,0,0-.09.1.17.17,0,0,0,0,.14.16.16,0,0,0,.18.06s.05,0,.06,0a.16.16,0,0,1,0,.15.15.15,0,0,1-.15.09.24.24,0,0,1-.19-.07.38.38,0,0,1-.13-.25.49.49,0,0,1,.28-.48.61.61,0,0,1,.66.06.79.79,0,0,1,.31.49.67.67,0,0,1-.29.63.76.76,0,0,1-.18.09,1.4,1.4,0,0,1-.52.07h-.06l-.41,0h0a1.69,1.69,0,0,0-.73.26,1.15,1.15,0,0,0-.2.17v-2.06h1.16a.9.9,0,0,0-.34.74A.73.73,0,0,0,120,208.4Zm-1.07,2.18h2.64v9.71h-2.64Zm.53-.41a.43.43,0,0,0,.1-.28.38.38,0,0,0-.14-.28.36.36,0,0,0-.28-.08,1.17,1.17,0,0,1,.59-.33,3.18,3.18,0,0,1,.69-.06h.06a1.65,1.65,0,0,0,.75-.13,1.13,1.13,0,0,0,.35-.3v1.46Zm2-3h.12v.12Zm-2.52-.41v-4.94h2.64v4.94Zm3.05.41h.1l-.1.09Zm0,3.42h1.48v9.71H122Zm0-.41v-1.43a1.13,1.13,0,0,0,.32.27,1.65,1.65,0,0,0,.75.13h.41v1Zm1.22-1.42h-.06a1.41,1.41,0,0,1-.52-.07l-.18-.09a.67.67,0,0,1-.29-.63.79.79,0,0,1,.31-.49.62.62,0,0,1,.66-.06.49.49,0,0,1,.28.48.39.39,0,0,1-.13.25.25.25,0,0,1-.19.07.15.15,0,0,1-.15-.09.16.16,0,0,1,0-.15s0,0,.06,0a.18.18,0,0,0,.19-.08.15.15,0,0,0-.08-.23.38.38,0,0,0-.41.09.48.48,0,0,0-.08.49.49.49,0,0,0,.45.31.61.61,0,0,0,.37-.11v.34Zm.23-1.59h0v0Zm-1.45-.41v-4.94h1.48v4.94Zm-9.46-4.94v4.94H110v-4.94Zm-.45,8.35H110v-1.43a1.13,1.13,0,0,0,.32.27,1.65,1.65,0,0,0,.75.13h.09a3,3,0,0,1,.67.06,1.17,1.17,0,0,1,.59.33.35.35,0,0,0-.28.08.37.37,0,0,0-.14.28A.43.43,0,0,0,112.06,210.17ZM110,207.26v-.09h.1Zm2.41,1.81a1.69,1.69,0,0,0-.73-.26h0l-.41,0h-.06a1.41,1.41,0,0,1-.52-.07l-.18-.09a.67.67,0,0,1-.29-.63.79.79,0,0,1,.31-.49.62.62,0,0,1,.66-.06.49.49,0,0,1,.28.48.39.39,0,0,1-.13.25.25.25,0,0,1-.19.07.15.15,0,0,1-.15-.09.16.16,0,0,1,0-.15s0,0,.06,0a.18.18,0,0,0,.19-.08.15.15,0,0,0-.08-.23.38.38,0,0,0-.41.09.48.48,0,0,0-.08.49.49.49,0,0,0,.45.31.61.61,0,0,0,.43-.15.73.73,0,0,0,.24-.5.9.9,0,0,0-.34-.74h1.08v2ZM110,210.58h2.54v9.71H110Zm14.94,0h2.64v10.81h-2.64Zm-30.8-.41H92v-1.43a1.13,1.13,0,0,0,.32.27,1.65,1.65,0,0,0,.75.13h.09a3,3,0,0,1,.67.06,1.17,1.17,0,0,1,.59.33.35.35,0,0,0-.28.08.37.37,0,0,0-.14.28A.43.43,0,0,0,94.11,210.17ZM92,207.26v-.09h.1Zm2.41,1.81a1.69,1.69,0,0,0-.73-.26h0l-.41,0h-.06a1.41,1.41,0,0,1-.52-.07l-.18-.09a.67.67,0,0,1-.29-.63.79.79,0,0,1,.31-.49.62.62,0,0,1,.66-.06.49.49,0,0,1,.28.48.39.39,0,0,1-.13.25.25.25,0,0,1-.19.07.15.15,0,0,1-.15-.09.16.16,0,0,1,0-.15s0,0,.06,0a.18.18,0,0,0,.19-.08.15.15,0,0,0-.08-.23.38.38,0,0,0-.41.09.48.48,0,0,0-.08.49.49.49,0,0,0,.45.31.61.61,0,0,0,.43-.15.73.73,0,0,0,.24-.5.9.9,0,0,0-.34-.74h1.08v2ZM95,221.39V210.58h2.61v10.81Zm1-13a.61.61,0,0,0,.43.15.49.49,0,0,0,.45-.31.48.48,0,0,0-.08-.49.38.38,0,0,0-.41-.09.16.16,0,0,0-.09.1.17.17,0,0,0,0,.14.15.15,0,0,0,.18.06s.05,0,.06,0a.16.16,0,0,1,0,.15.15.15,0,0,1-.15.09.25.25,0,0,1-.19-.07.39.39,0,0,1-.13-.25.49.49,0,0,1,.28-.48.61.61,0,0,1,.66.06.79.79,0,0,1,.31.49.68.68,0,0,1-.29.63.76.76,0,0,1-.18.09,1.4,1.4,0,0,1-.52.07h-.06l-.41,0h0a1.69,1.69,0,0,0-.73.26l-.18.14v-2h1.14a.9.9,0,0,0-.34.74A.73.73,0,0,0,96,208.4Zm1.57.31v1.46H95.47a.43.43,0,0,0,.1-.28.37.37,0,0,0-.14-.28.36.36,0,0,0-.28-.08,1.17,1.17,0,0,1,.59-.33,3.17,3.17,0,0,1,.69-.06h.06a1.65,1.65,0,0,0,.75-.13A1.13,1.13,0,0,0,97.59,208.71Zm-.12-1.55h.12v.12ZM98,221.39V210.58h2.54v10.81ZM98.32,209a1.65,1.65,0,0,0,.75.13h.09a3,3,0,0,1,.67.06,1.17,1.17,0,0,1,.59.33.35.35,0,0,0-.28.08.37.37,0,0,0-.14.28.43.43,0,0,0,.1.28H98v-1.43A1.13,1.13,0,0,0,98.32,209ZM98,207.26v-.09h.1Zm1.16.4a.38.38,0,0,0-.41.09.48.48,0,0,0-.08.49.49.49,0,0,0,.45.31.61.61,0,0,0,.43-.15.73.73,0,0,0,.24-.5.9.9,0,0,0-.34-.74h1.08v2l-.13-.1a1.69,1.69,0,0,0-.73-.26h0l-.41,0h-.06a1.41,1.41,0,0,1-.52-.07.77.77,0,0,1-.18-.09.67.67,0,0,1-.29-.63.79.79,0,0,1,.31-.49.62.62,0,0,1,.66-.06.49.49,0,0,1,.28.48.38.38,0,0,1-.13.25.25.25,0,0,1-.19.07.15.15,0,0,1-.15-.09.16.16,0,0,1,0-.15s0,0,.06,0a.18.18,0,0,0,.19-.08.15.15,0,0,0-.08-.23Zm1.79,13.73V210.58h2.61v10.81Zm1-13a.61.61,0,0,0,.43.15.49.49,0,0,0,.45-.31.48.48,0,0,0-.08-.49.38.38,0,0,0-.41-.09.16.16,0,0,0-.09.1.17.17,0,0,0,0,.14.15.15,0,0,0,.18.06s.05,0,.06,0a.16.16,0,0,1,0,.15.15.15,0,0,1-.15.09.24.24,0,0,1-.19-.07.39.39,0,0,1-.13-.25.49.49,0,0,1,.28-.48.61.61,0,0,1,.66.06.79.79,0,0,1,.31.49.68.68,0,0,1-.29.63.75.75,0,0,1-.18.09,1.4,1.4,0,0,1-.52.07h-.06l-.41,0h0a1.69,1.69,0,0,0-.73.26l-.18.14v-2h1.14a.9.9,0,0,0-.34.74A.73.73,0,0,0,102,208.4Zm1.57.31v1.46h-2.11a.43.43,0,0,0,.1-.28.37.37,0,0,0-.14-.28.36.36,0,0,0-.28-.08,1.17,1.17,0,0,1,.59-.33,3.17,3.17,0,0,1,.69-.06h.06a1.65,1.65,0,0,0,.75-.13A1.13,1.13,0,0,0,103.56,208.71Zm-.12-1.55h.12v.12Zm.53,14.22V210.58h2.53v10.81Zm.32-12.37a1.65,1.65,0,0,0,.75.13h.09a3,3,0,0,1,.67.06,1.17,1.17,0,0,1,.59.33.35.35,0,0,0-.28.08.37.37,0,0,0-.14.28.43.43,0,0,0,.1.28H104v-1.43A1.13,1.13,0,0,0,104.29,209Zm-.32-1.76v-.09h.1Zm-.41-5.44v4.94h-2.61v-4.94Zm-3,0v4.94H98v-4.94Zm-2.95,0v4.94H95v-4.94Zm-3,0v4.94H92v-4.94Zm0,8.76v10.81H92V210.58Zm.41,12h2.61v3.7H95Zm3,0h2.54v3.7H98Zm2.95,0h2.61v3.7h-2.61Zm24,1.45h2V222.6h.61v3.7h-2.64ZM128,222.6h2.54v3.7H128Zm2.95,0h2.64v3.7h-2.64Zm24,1.45h2V222.6h.61v3.7H154.9Zm5.5-20.51-.1.09a2.51,2.51,0,0,0-1.17,2,6.09,6.09,0,0,0,.13,1.14H158v-4.94h2.45Zm-7-2.94H137.72v-40h15.71Zm-13.89,1.22v4.94h-1.82v-4.94Zm-3.05,4.94H134v-4.94h2.53Zm-13-6.15H107.73v-40h15.71Zm-13.89,1.22v4.94h-1.82v-4.94Zm-3.05,4.94H104v-4.94h2.53Zm-14.89-4.94v4.94H90.05a6.09,6.09,0,0,0,.13-1.14,2.51,2.51,0,0,0-1.17-2l-.06-.06v-1.76Zm-3.08,0v1.38A1.52,1.52,0,0,1,88,202a1,1,0,0,1,.34-.82l.16-.09Zm.41,8.76h2.67v10.81H88.95Zm-.41,10.81h0V222c-1-.93-2.24-2-2.24-3.58s1-4.12,2-6.5l.28-.68Zm-2.6-2.29a6.05,6.05,0,0,0,2.31,3.23l.27.24v0h0v.67A8.52,8.52,0,0,0,87.29,222a11.83,11.83,0,0,1-1.35-1.35Zm2.22,6.65a1.27,1.27,0,0,1-.33.26,1.17,1.17,0,0,1-.65-1.1,1.06,1.06,0,0,1,.29-.73.8.8,0,0,1,.8-.16.19.19,0,0,0,.18-.07,1.2,1.2,0,0,1,.09.39v.14A1.94,1.94,0,0,1,88.16,225.74Zm.38.17v.24a1.25,1.25,0,0,1-.23,0,1.67,1.67,0,0,0,.16-.14Zm-.56.6h-.31l.14,0Zm-.66-.36a1.3,1.3,0,0,1-.59-.08,1.18,1.18,0,0,1-.77-1.17,1.06,1.06,0,0,1,.29-.73A.8.8,0,0,1,87,224s0,0,.07,0a1.48,1.48,0,0,0-.34.89A1.59,1.59,0,0,0,87.31,226.15Zm-1.37-4.86c.35.37.72.71,1.08,1a7.45,7.45,0,0,1,1.25,1.28,1.19,1.19,0,0,0-1,.22.2.2,0,0,0-.15-.21,1.21,1.21,0,0,0-1.16.27l0,0Zm0,4.7a1.62,1.62,0,0,0,.63.46l.18.05h-.81Zm0,7.21H164.8v-6.7h-2.23l.18-.05a1.6,1.6,0,0,0,1-1.56,1.47,1.47,0,0,0-.42-1,1.21,1.21,0,0,0-1.16-.27.2.2,0,0,0-.15.21,1.19,1.19,0,0,0-1-.22,7.45,7.45,0,0,1,1.25-1.28c1.11-1,2.38-2.11,2.38-3.89s-1-4.23-2-6.66a31.67,31.67,0,0,1-1.76-5.09V205a2.88,2.88,0,0,1,.9-1.05,2.35,2.35,0,0,0,1.13-1.9,1.37,1.37,0,0,0-.51-1.14,2.14,2.14,0,0,0-1.58-.25v0h-6.17V159.32H136.49V200.6H124.68V159.32H106.5V200.6h-18v.06a2.19,2.19,0,0,0-1.64.24,1.37,1.37,0,0,0-.51,1.14,2.35,2.35,0,0,0,1.13,1.9,2.14,2.14,0,0,1,1,1.63v.11c0,1.51-1,3.84-1.89,6.09-.24.59-.48,1.19-.71,1.77V109.11l63.5-39a.41.41,0,0,0,.2-.35V58.61h52.43v11.1a.41.41,0,0,0,.2.35l65.12,40.18V304.29H249.25v-.68H227v.68h-8v-.68H196.72v.68h-8v-.68H166.47v.68H147.61V240.73H100.18v63.57H85.94Zm75.12-10.89c1.11-1,2.38-2.11,2.38-3.89s-1-4.23-2-6.66l-.53-1.32v-2.16c.36,1.12.86,2.36,1.38,3.64,1,2.39,2,4.85,2,6.5s-1.19,2.65-2.24,3.58a10.18,10.18,0,0,0-1.12,1.1v-.65Zm-.16-.41V211.55l.15.38c1,2.39,2,4.85,2,6.5S161.92,221,160.9,221.91Zm1.31,2.09s0,0,.07,0a.8.8,0,0,1,.8.16,1.06,1.06,0,0,1,.29.73,1.18,1.18,0,0,1-.77,1.17,1.3,1.3,0,0,1-.59.08,1.59,1.59,0,0,0,.54-1.26A1.48,1.48,0,0,0,162.21,224Zm-.72,2a1.26,1.26,0,0,1-.33-.26,1.36,1.36,0,0,1-.25-.47V224a.2.2,0,0,0,.14,0,.8.8,0,0,1,.8.16,1.06,1.06,0,0,1,.29.73A1.17,1.17,0,0,1,161.48,226Zm.16.5h-.31l.16,0Zm-.64-.35h-.11v-.1Zm.69-24.12a1.41,1.41,0,0,0-.39-1,1.39,1.39,0,0,1,.87.22,1,1,0,0,1,.34.82c0,.75-.45,1.13-1,1.58a5.69,5.69,0,0,0-.63.59v-.57A2,2,0,0,0,161.69,202Zm-.79,1v-1.85l0,0a1,1,0,0,1,.34.82A1.45,1.45,0,0,1,160.9,203.06ZM85.06,218.43a5.46,5.46,0,0,1,.06-.76V219A3.07,3.07,0,0,1,85.06,218.43Zm-2.51,86.68h9.51v2.64H82.55Zm-8.07,0H82v2.64H74.47Zm0,3.14H77v2.22H74.47Zm0,2.72H82v2.22H74.47Zm0,2.72H77v2.22H74.47Zm0,4.74v-2h3.94l-2.27,2Zm102.37,2.46H74l6.33-5.64h4.84l-.19.25a.2.2,0,0,0,0,.12h0v3.28h81v-3.28h0a.2.2,0,0,0,0-.12l-.19-.25h4.84Zm-4.33-5V313.7h8.58v2.22Zm12.59,2.52h-9.43v-2h9.43Zm9.08,0h-8.58v-2h8.58Zm8.93,0h-8.43v-2h8.43Zm9.08,0h-8.58v-2h8.58Zm8.93,0H212.7v-2h8.43Zm9.08,0h-8.58v-2h8.58Zm9.93,0h-9.43v-2h9.43Zm9.08,0h-8.58v-2h8.58Zm10.93,0H249.72v-2h10.43Zm9.08,0h-8.58v-2h8.58Zm8.79,0h-8.29v-2H278Zm0-2.52h-2.37V313.7H278Zm0-2.72h-8.29V311H278Zm0-2.72h-2.37v-2.22H278Zm0-5.37v2.64h-8.29v-2.64Z"/>
      <path class="cls-1" d="M279,101.29H267.15a.82.82,0,0,0-.82.82v1.6l-59.4-36.92V54.33a.82.82,0,0,0-.82-.82h-60.4a.82.82,0,0,0-.82.82V66.79L86,103.71v-1.6a.82.82,0,0,0-.82-.82H74.36a.82.82,0,0,0,0,1.64h10v2.26a.82.82,0,0,0,1.25.7l60.55-37.94a.82.82,0,0,0,.39-.7V55.15h58.76v12.1a.82.82,0,0,0,.39.7l61,37.94a.82.82,0,0,0,1.25-.7v-2.26h11a.82.82,0,1,0,0-1.64Z"/>
      <path class="cls-1" d="M170.84,137.25V104.66H152.92v32.59Zm-16.68-31.36h15.45V136H154.15Z"/>
      <polygon class="cls-1" points="151.99 103.74 171.77 103.74 171.77 119.46 173.82 119.46 173.82 101.69 149.94 101.69 149.94 119.46 151.99 119.46 151.99 103.74"/>
      <rect class="cls-1" x="150.69" y="137.99" width="22.38" height="1.76"/>
      <path class="cls-1" d="M182.49,104.66v32.59H200.4V104.66ZM199.17,136H183.72V105.89h15.45Z"/>
      <polygon class="cls-1" points="179.5 119.46 181.55 119.46 181.55 103.74 201.33 103.74 201.33 119.46 203.38 119.46 203.38 101.69 179.5 101.69 179.5 119.46"/>
      <rect class="cls-1" x="180.26" y="137.99" width="22.38" height="1.76"/>
      <path class="cls-1" d="M162.87,78.4a1.53,1.53,0,0,0,.38.7l-1.41-.44a5,5,0,0,0,1.37,2.83l-.84-.36a4.37,4.37,0,0,0,1.76,2.55h-.89a4.07,4.07,0,0,0,3.29,2.17,2.73,2.73,0,0,1,1.52.3l-.62.22a3.66,3.66,0,0,1-.9,2.86,3.2,3.2,0,0,1-.86.47,14.53,14.53,0,0,1-2,.65l2.33.53a9.29,9.29,0,0,1-1.35,1.77l4-2.21a.59.59,0,0,1,.12-.79,1.71,1.71,0,0,1,.82-.32l0,.34c.06.46,1.82-.53,2-.67s.32-.65.53-.74,1,.21,1.33.33a11.43,11.43,0,0,0,3.21.52,7.46,7.46,0,0,0,2.54-.14c.75-.21,1.39-.79,2.19-.84a2.22,2.22,0,0,0,2.46,1.55l0-.34a1.71,1.71,0,0,1,.82.32.59.59,0,0,1,.12.79l4,2.21a9.29,9.29,0,0,1-1.35-1.77l2.33-.53a14.52,14.52,0,0,1-2-.65,3.2,3.2,0,0,1-.86-.47,3.66,3.66,0,0,1-.9-2.86l-.62-.22a2.73,2.73,0,0,1,1.52-.3,4.07,4.07,0,0,0,3.29-2.17h-.89A4.37,4.37,0,0,0,191,81.14l-.84.36a5,5,0,0,0,1.37-2.83l-1.41.44a1.53,1.53,0,0,0,.38-.7.53.53,0,0,0-.39-.61,6.77,6.77,0,0,0,1.74-5,11.51,11.51,0,0,0-1.94,1.67,1.29,1.29,0,0,0-.58-1.46,3.34,3.34,0,0,0,.34-3.05,10.12,10.12,0,0,0-1.5,1.48,2.51,2.51,0,0,0-.81-1.53.77.77,0,0,1-.3.34,3.14,3.14,0,0,0-.38-3.19,4.88,4.88,0,0,1-1.22,1.53,4.87,4.87,0,0,0-.47-1.19c-.69-1.32-1.78-2.63-3.27-2.78.55.06.75,1.28.75,1.7a4,4,0,0,0-3.2-.77.07.07,0,0,0-.08.1A2.13,2.13,0,0,0,181,67.37c-.79.31-1.89.19-.67,1a4.73,4.73,0,0,0,1.09.46c.77.24,1.67.37,2,0a1.55,1.55,0,0,1-1.19.45,4.46,4.46,0,0,0,2.3,1.81c.63.14,1.47.1,1.71.7a7.09,7.09,0,0,0-1.56,0A3.57,3.57,0,0,0,187,74.48c-.29.08-.32.48-.24.77.37,1.44,1.68,2.67,1.44,4.14a2,2,0,0,0-1.65-1.09,3.48,3.48,0,0,0,.22,1.87c.26.62.69,1.33.33,1.9a1.33,1.33,0,0,0-1.15-1.31,5.47,5.47,0,0,1-1,3.16,1,1,0,0,0-.17-.79,3,3,0,0,1-1.31,1.44c.14-.27-.18-.59-.48-.58a1.34,1.34,0,0,0-.79.42l-1.94,1.72q0-.46,0-.92c-1.16-.14-1.95.48-3,.71a.66.66,0,0,1-.29,0,.72.72,0,0,1-.26-.15l-.83-.64a1.07,1.07,0,0,0,.28.83c-.26-.12-2.93-1.19-2.93-.77s0,.61,0,.92l-1.94-1.72a1.34,1.34,0,0,0-.79-.42c-.3,0-.62.31-.48.58a3,3,0,0,1-1.31-1.44,1,1,0,0,0-.17.79,5.47,5.47,0,0,1-1-3.16,1.33,1.33,0,0,0-1.15,1.31c-.36-.57.08-1.28.33-1.9a3.48,3.48,0,0,0,.22-1.87,2,2,0,0,0-1.65,1.09c-.24-1.46,1.07-2.7,1.44-4.14.08-.29,0-.69-.24-.77a3.57,3.57,0,0,0,2.28-2.68,7.09,7.09,0,0,0-1.56,0c.24-.6,1.08-.56,1.71-.7a4.46,4.46,0,0,0,2.3-1.81,1.55,1.55,0,0,1-1.19-.45c.34.34,1.24.21,2,0a4.73,4.73,0,0,0,1.09-.46c1.22-.82.12-.7-.67-1a2.13,2.13,0,0,0,1.82-1.77.09.09,0,0,0,0-.06.1.1,0,0,0-.07,0,4,4,0,0,0-3.2.77c0-.42.19-1.65.75-1.7-1.48.15-2.58,1.45-3.27,2.78a4.87,4.87,0,0,0-.47,1.19A4.88,4.88,0,0,1,166.7,67a3.14,3.14,0,0,0-.38,3.19.77.77,0,0,1-.3-.34,2.51,2.51,0,0,0-.81,1.53,10.12,10.12,0,0,0-1.5-1.48A3.34,3.34,0,0,0,164,73a1.29,1.29,0,0,0-.58,1.46,11.52,11.52,0,0,0-1.93-1.67,6.77,6.77,0,0,0,1.74,5A.53.53,0,0,0,162.87,78.4Z"/>
      <path class="cls-1" d="M170.9,73.8V81h1.63V78.11h.5c.67,0,1,.26,1.18,1.17a9,9,0,0,0,.51,1.69h1.68c-.14-.28-.37-1.23-.59-2a1.83,1.83,0,0,0-1-1.36v0a1.93,1.93,0,0,0,1.28-1.79,1.84,1.84,0,0,0-.67-1.52,3.71,3.71,0,0,0-2.35-.57A14.36,14.36,0,0,0,170.9,73.8Zm3.58,2.08c0,.64-.49,1-1.31,1h-.65v-2a4.1,4.1,0,0,1,.74-.05C174,74.88,174.48,75.21,174.48,75.88Z"/>
      <path class="cls-1" d="M178.92,78.37a4.17,4.17,0,0,0,.56,0,3.37,3.37,0,0,0,2.36-.77,2.32,2.32,0,0,0,.67-1.73,2.12,2.12,0,0,0-.78-1.68,3.48,3.48,0,0,0-2.22-.58,13.38,13.38,0,0,0-2.22.15V81h1.63Zm0-3.42a2.82,2.82,0,0,1,.68-.06c.82,0,1.28.4,1.28,1.07s-.54,1.19-1.41,1.19a2.53,2.53,0,0,1-.55,0Z"/>
    </g>
  </g>
</svg>
